<svg id="Layer_1" data-name="Layer 1" xmlns="http://www.w3.org/2000/svg" viewBox="0 0 401.18 341.48"><defs><style>.cls-1{fill:#fff;}</style></defs><title>Sponge</title><path class="cls-1" d="M0,341.48V0H401.18V341.48ZM11.6,221.85c4.36,3.9,8.43,7.88,12.84,11.42,20.32,16.36,44,25.13,69.48,28.5,11.32,1.5,23.19,1,34.56-.57,19.43-2.64,36.08-11.88,50.94-24.69C203,216.23,230.77,206,261.47,204c23.72-1.57,47.59-1.11,71.25-3.19,19-1.67,38-5.39,53.91-17.49,1-.74,2.38-.9,4.9-1.79,0,4.34-.48,7.8.18,11,.4,2,2.51,3.72,3.85,5.56.88-1.88,2.47-3.75,2.51-5.65.22-12.49.53-25-.11-37.47a36.87,36.87,0,0,0-4.46-14.92c-6.59-12.34-17.17-21.4-28.57-28.75C328.2,87.63,288.11,75.19,244,79.3c-16.38,1.53-32.48,5.25-45.37,16.57-8,7.07-15.49,14.85-23.17,22.34-5.94,5.8-6,5.46-9.87-1.53-5.18-9.4-10.56-18.83-17.07-27.32-5.38-7-12-6.47-18.34,0-14.33,14.58-20,33.51-25.61,52.33-1.8,6.05-4.78,9-10.81,9.75-12.37,1.63-24.8,3.07-37,5.44-17.56,3.4-35,7.78-47.46,22-3.21,3.67-5.72,9.32-5.81,14.11q-.8,42,0,84a30.45,30.45,0,0,0,4.94,15.42C16.91,305.33,28.7,315,42.22,322.57c22.85,12.79,47.31,16.65,73.41,16.41,23.93-.21,43.44-8.6,61.36-23.28,18.65-15.29,39.09-27.76,63.49-30.65,22-2.6,44.15-3.51,66.26-4.81,21.66-1.28,43.3-2.08,63.87-10.37,22.78-9.18,32.65-27,27.39-50.88-.31-1.38-2.19-2.41-3.34-3.61-1,1.3-2.77,2.51-3,3.92a49.43,49.43,0,0,0-.15,10.39c1.2,14.54-5.61,24-18.16,30.52-16.84,8.69-35.19,10.59-53.53,11.9-21.16,1.51-42.4,1.76-63.58,3-29.41,1.71-56,11.59-78.31,30.82s-47.37,28.74-77.24,26.22C71.19,329.65,45,319.77,23.38,299.61c-5.87-5.48-11.62-13.88-12.42-21.48-1.89-17.83-.76-36-.79-54C10.17,223.55,10.86,223,11.6,221.85ZM215.19,48.22c-.5-15.33-6.51-28.63-15.95-40.34C193.52.79,188.62.94,182.53,7.66c-9.27,10.23-13.56,23.05-16.66,36a27.66,27.66,0,0,0,1.84,16.74C173,72,185,77.75,195.34,75.21,208.6,72,215.11,63.05,215.19,48.22ZM92.66,81.62c10.08,0,17.22-4.57,19.31-14.41,3.13-14.77-3.69-27-12.49-38.06C94,22.29,89.06,22.53,84.73,30,80,38.12,75.7,46.71,73,55.64,69,69.19,79,81.63,92.66,81.62ZM198.91,277.43l-.65-1.94c-1.78.26-3.77.11-5.32.87a91.18,91.18,0,0,0-9.49,5.56c-17.38,11.27-31.38,28.15-53.25,32-1,.19-1.74,2.25-2.61,3.44,1.37.51,3,1.81,4,1.41,8.7-3.43,17.93-6.14,25.76-11,13.62-8.5,26.36-18.39,39.43-27.76A12.35,12.35,0,0,0,198.91,277.43Zm95.73-18.21.87,2.94c9.17,0,18.39.6,27.51-.13,15.83-1.26,31.55-3.6,46-11,2.27-1.16,4.08-3.21,6.11-4.85l-1.39-2.27c-2.64.93-5.25,2-7.93,2.77-8.94,2.66-17.76,6.22-26.91,7.59-12.45,1.87-25.15,2-37.73,3C298.92,257.45,296.8,258.54,294.64,259.22ZM47.79,302l.66-1.87C47,299,45.4,297.94,44,296.67c-6.54-6.08-13-12.26-19.57-18.31a33.66,33.66,0,0,0-4.63-3.1c.07,2-.69,4.84.34,5.86,7.19,7.06,14.66,13.84,22.29,20.43C43.55,302.5,46,301.9,47.79,302Z"/><path d="M11.6,221.85c-.74,1.14-1.43,1.7-1.43,2.27,0,18-1.1,36.18.79,54,.8,7.6,6.55,16,12.42,21.48,21.61,20.16,47.81,30,77.35,32.53,29.87,2.52,54.82-6.94,77.24-26.22s48.9-29.11,78.31-30.82c21.18-1.23,42.42-1.48,63.58-3,18.34-1.31,36.69-3.21,53.53-11.9,12.55-6.48,19.36-16,18.16-30.52a49.43,49.43,0,0,1,.15-10.39c.19-1.41,1.93-2.62,3-3.92,1.15,1.2,3,2.23,3.34,3.61,5.26,23.9-4.61,41.7-27.39,50.88C350,278.16,328.4,279,306.74,280.24c-22.11,1.3-44.29,2.21-66.26,4.81-24.4,2.89-44.84,15.36-63.49,30.65-17.92,14.68-37.43,23.07-61.36,23.28-26.1.24-50.56-3.62-73.41-16.41C28.7,315,16.91,305.33,8.38,292.39A30.45,30.45,0,0,1,3.44,277q-.72-42,0-84c.09-4.79,2.6-10.44,5.81-14.11,12.42-14.23,29.9-18.61,47.46-22,12.24-2.37,24.67-3.81,37-5.44,6-.79,9-3.7,10.81-9.75,5.58-18.82,11.28-37.75,25.61-52.33,6.37-6.47,13-7,18.34,0,6.51,8.49,11.89,17.92,17.07,27.32,3.86,7,3.93,7.33,9.87,1.53,7.68-7.49,15.12-15.27,23.17-22.34,12.89-11.32,29-15,45.37-16.57,44.11-4.11,84.2,8.33,120.93,32,11.4,7.35,22,16.41,28.57,28.75A36.87,36.87,0,0,1,398,155c.64,12.46.33,25,.11,37.47,0,1.9-1.63,3.77-2.51,5.65-1.34-1.84-3.45-3.53-3.85-5.56-.66-3.23-.18-6.69-.18-11-2.52.89-3.93,1.05-4.9,1.79-15.94,12.1-34.88,15.82-53.91,17.49-23.66,2.08-47.53,1.62-71.25,3.19-30.7,2-58.52,12.25-82.05,32.53-14.86,12.81-31.51,22.05-50.94,24.69-11.37,1.54-23.24,2.07-34.56.57-25.47-3.37-49.16-12.14-69.48-28.5C20,229.73,16,225.75,11.6,221.85ZM261.07,86.11c-2.08,0-4.17-.06-6.24,0-25,.88-47.8,7.07-64.68,27.35-3.38,4.07-6.88,8.23-11,11.42-5.79,4.45-7.17,9-4.73,16.09,3,8.57,1.35,17.33-2.71,25.47-6.63,13.27-18.1,20.24-32.24,20.11-15.27-.14-27.38-7.66-33.42-22.54-1.83-4.51-4.36-5.88-9-5-5.18,1-10.54,1.06-15.7,2.13-16.83,3.49-33.92,6.2-50.3,11.19S7.13,189.07,11.19,202.16c2.26,7.29,7.35,14.47,13,19.81,21.24,20.22,47.76,29.33,76.29,32.14,26.5,2.62,51.17-3.83,71.33-21.86,30.65-27.41,67.43-36.17,107-37.79,22.57-.92,45.21-1.67,67.59-4.38,10.87-1.32,21.71-6,31.66-10.92,12.07-6,16.35-16.9,12-29.11A45.92,45.92,0,0,0,379,132.83C346.05,101.4,305.59,88.5,261.07,86.11Zm-121.5,91.74c17,0,30.39-14.67,27.59-30.85A124.61,124.61,0,0,0,146,96.58c-4.68-6.7-8.44-6.44-13.34.24-10.1,13.76-16.37,29.35-20.32,45.74C107.75,161.7,120.63,177.91,139.57,177.85Z"/><path d="M215.19,48.22c-.08,14.83-6.59,23.73-19.85,27C185,77.75,173,72,167.71,60.43a27.66,27.66,0,0,1-1.84-16.74c3.1-13,7.39-25.8,16.66-36,6.09-6.72,11-6.87,16.71.22C208.68,19.59,214.69,32.89,215.19,48.22Zm-43-2.11c-.23,14.56,8.84,23.34,21.53,23.27,7.3,0,17.15-11.07,16.11-19.76-1.57-13.13-5.72-25.56-14.12-36.24-3.61-4.59-6.84-4-10,.21C178,24,173,35.42,172.21,46.11Z"/><path d="M92.66,81.62C79,81.63,69,69.19,73,55.64,75.7,46.71,80,38.12,84.73,30c4.33-7.48,9.27-7.72,14.75-.86,8.8,11,15.62,23.29,12.49,38.06C109.88,77.05,102.74,81.61,92.66,81.62Zm0-6.57c7.56,0,11-2.53,13.12-9.65s-5-28.25-11.27-32c-1.21-.73-4.59.09-5.5,1.3-6.08,8.08-9.81,17.21-9.75,27.45C79.29,69.72,85.13,75,92.65,75.05Z"/><path d="M198.91,277.43a12.35,12.35,0,0,1-2.09,2.57c-13.07,9.37-25.81,19.26-39.43,27.76-7.83,4.9-17.06,7.61-25.76,11-1,.4-2.67-.9-4-1.41.87-1.19,1.57-3.25,2.61-3.44,21.87-3.88,35.87-20.76,53.25-32a91.18,91.18,0,0,1,9.49-5.56c1.55-.76,3.54-.61,5.32-.87Z"/><path d="M294.64,259.22c2.16-.68,4.28-1.77,6.48-2,12.58-1,25.28-1.12,37.73-3,9.15-1.37,18-4.93,26.91-7.59,2.68-.8,5.29-1.84,7.93-2.77l1.39,2.27c-2,1.64-3.84,3.69-6.11,4.85-14.4,7.39-30.12,9.73-46,11-9.12.73-18.34.13-27.51.13Z"/><path d="M47.79,302c-1.81-.12-4.24.48-5.33-.47-7.63-6.59-15.1-13.37-22.29-20.43-1-1-.27-3.87-.34-5.86a33.66,33.66,0,0,1,4.63,3.1c6.58,6.05,13,12.23,19.57,18.31,1.37,1.27,2.94,2.33,4.42,3.48Z"/><path class="cls-1" d="M261.07,86.11c44.52,2.39,85,15.29,117.88,46.72a45.92,45.92,0,0,1,11.11,17.22c4.34,12.21.06,23.1-12,29.11-9.95,5-20.79,9.6-31.66,10.92-22.38,2.71-45,3.46-67.59,4.38-39.61,1.62-76.39,10.38-107,37.79-20.16,18-44.83,24.48-71.33,21.86-28.53-2.81-55-11.92-76.29-32.14-5.6-5.34-10.69-12.52-12.95-19.81C7.13,189.07,14.71,177.31,31,172.35s33.47-7.7,50.3-11.19C86.48,160.09,91.84,160,97,159c4.64-.89,7.17.48,9,5,6,14.88,18.15,22.4,33.42,22.54,14.14.13,25.61-6.84,32.24-20.11,4.06-8.14,5.66-16.9,2.71-25.47-2.44-7.08-1.06-11.64,4.73-16.09,4.15-3.19,7.65-7.35,11-11.42C207,93.19,229.79,87,254.83,86.12,256.9,86.05,259,86.11,261.07,86.11Zm36,88.21,2.09-6.36c-4.09-.51-8.44-2.13-12.18-1.22-4.29,1-5.07,4.39-.19,6.85Zm40.32-18.94-2.5,4.73c3.44,1.17,6.87,3.1,10.34,3.19,1.85,0,3.77-3.12,5.66-4.84-2.72-1.55-5.3-3.56-8.22-4.46-1.52-.47-3.65,1-5.5,1.6Zm-51.53-42.67,2.38-5.38c-2.9-1.08-5.91-3.23-8.66-2.93-2.58.27-4.89,3.13-7.32,4.85,2.44,1.5,4.73,3.56,7.39,4.32,1.89.55,4.27-.66,6.43-1.08Zm-175,87-.2-.19c1.47.53,3.09,1.75,4.38,1.47a44.4,44.4,0,0,0,9.22-3.33c.38-.18.15-3.34-.38-3.53-3.3-1.19-6.87-3-10.14-2.6C108.09,192.11,107.31,195.21,110.79,199.66Zm-38.46-26.8-8.22,6.78c2.76,1.75,5.48,4.76,8.31,4.87,2.54.1,5.2-3,7.81-4.69Zm11.93,62.58,8.55-7.39c-2.67-1.65-5.34-4.6-8-4.59s-5.43,2.94-8.14,4.59Zm240.31-98.17,8-6.6c-2.78-1.86-5.56-5.17-8.32-5.15s-5.18,3.55-7.77,5.53Zm-91.72,42.37,8.34-6.4c-2.64-1.78-5.3-5-7.89-5-2.92.06-5.77,3.11-8.65,4.85Zm-41.58,9.43c-4.21-6-9.52-4.79-14.62-3.38a4.67,4.67,0,0,0-2.53,3.68c0,1.22,1.6,2.89,2.89,3.44C182.38,195.13,187.34,194.9,191.27,189.07ZM233.43,127l7.85-7c-3-1.6-5.95-4.31-9-4.46-2.48-.11-5.1,2.87-7.66,4.48ZM52.9,199.09l-8.46,7.17c2.73,1.6,5.47,4.46,8.18,4.44s5.46-2.9,8.19-4.53ZM198.16,143.8c-3.45,2.37-6,4.11-8.48,5.85,2.74,1.9,5.48,5.28,8.23,5.3s5.71-3.26,8.56-5.09Zm-57.78,82.92,8.16-7c-2.75-1.79-5.45-4.88-8.28-5-2.65-.12-5.43,2.91-8.15,4.56ZM263.28,135l-7.64,6.39c2.78,1.81,5.5,4.92,8.34,5,2.52.1,5.17-3.13,7.77-4.89Z"/><path class="cls-1" d="M139.57,177.85c-18.94.06-31.82-16.15-27.2-35.29,3.95-16.39,10.22-32,20.32-45.74,4.9-6.68,8.66-6.94,13.34-.24A124.61,124.61,0,0,1,167.16,147C170,163.18,156.53,177.8,139.57,177.85Zm-2.37-10.42c4.15,6.11,7.81,3,10.94,1.69,6.64-2.75,11.77-10.84,11.15-17.52-.17-1.78-1.69-3.44-2.59-5.15l-2,.43C154.81,158.36,149.08,165.08,137.2,167.43Z"/><path class="cls-1" d="M172.21,46.11C173,35.42,178,24,185.77,13.59c3.12-4.2,6.35-4.8,10-.21,8.4,10.68,12.55,23.11,14.12,36.24,1,8.69-8.81,19.71-16.11,19.76C181.05,69.45,172,60.67,172.21,46.11Zm18.5,17.32c6.58,1.19,10.18-3,12.93-7.83,1-1.66-.07-4.45-.17-6.33Z"/><path class="cls-1" d="M92.65,75.05c-7.52,0-13.36-5.33-13.4-12.88C79.19,51.93,82.92,42.8,89,34.72c.91-1.21,4.29-2,5.5-1.3,6.26,3.73,13.39,24.77,11.27,32S100.21,75.07,92.65,75.05Z"/><path d="M72.33,172.86l7.9,7c-2.61,1.69-5.27,4.79-7.81,4.69-2.83-.11-5.55-3.12-8.31-4.87Z"/><path d="M84.26,235.44l-7.59-7.39c2.71-1.65,5.42-4.57,8.14-4.59s5.33,2.94,8,4.59Z"/><path d="M324.57,137.27l-8.09-6.22c2.59-2,5.16-5.51,7.77-5.53s5.54,3.29,8.32,5.15Z"/><path d="M232.85,179.64l-8.2-6.52c2.88-1.74,5.73-4.79,8.65-4.85,2.59-.06,5.25,3.19,7.89,5Z"/><path d="M191.27,189.07c-3.93,5.83-8.89,6.06-14.26,3.74-1.29-.55-2.84-2.22-2.89-3.44a4.67,4.67,0,0,1,2.53-3.68C181.75,184.28,187.06,183.08,191.27,189.07Z"/><path d="M233.43,127l-8.83-7c2.56-1.61,5.18-4.59,7.66-4.48,3.07.15,6,2.86,9,4.46Z"/><path d="M52.9,199.09l7.91,7.08c-2.73,1.63-5.45,4.51-8.19,4.53s-5.45-2.84-8.18-4.44Z"/><path d="M198.16,143.8l8.31,6.06c-2.85,1.83-5.71,5.1-8.56,5.09s-5.49-3.4-8.23-5.3C192.2,147.91,194.71,146.17,198.16,143.8Z"/><path class="cls-1" d="M297,174.32l-10.28-.73c-2-4.62.67-5.54,4.44-5.78C296,167.51,297.88,169.64,297,174.32Z"/><path d="M137.2,167.43c11.88-2.35,17.61-9.07,17.47-20.55l2-.43c.9,1.71,2.42,3.37,2.59,5.15.62,6.68-4.51,14.77-11.15,17.52C145,170.41,141.35,173.54,137.2,167.43Z"/><path d="M190.71,63.43l12.76-14.16c.1,1.88,1.12,4.67.17,6.33C200.89,60.4,197.29,64.62,190.71,63.43Z"/><path class="cls-1" d="M258.48,140h10.63C265.54,145.09,262,145.37,258.48,140Z"/><path d="M276.61,139.26c-3.93,5.82-8.9,6.06-14.27,3.74-1.28-.56-2.83-2.23-2.88-3.45a4.62,4.62,0,0,1,2.53-3.67C267.09,134.46,272.4,133.27,276.61,139.26Z"/><path d="M105.66,190.63,114,196.7c-2.86,1.83-5.72,5.1-8.56,5.08s-5.49-3.39-8.23-5.29Z"/><path d="M137.59,218.4l8.31,6.07c-2.86,1.83-5.71,5.09-8.56,5.08s-5.49-3.4-8.23-5.3Z"/><path d="M297.44,172.58c-3.94,5.82-8.9,6.06-14.27,3.74-1.29-.56-2.83-2.23-2.89-3.45a4.66,4.66,0,0,1,2.53-3.67C287.92,167.78,293.23,166.59,297.44,172.58Z"/><path d="M284.94,104.55c-3.93,5.82-8.9,6.06-14.27,3.74-1.28-.56-2.83-2.23-2.88-3.44a4.63,4.63,0,0,1,2.53-3.68C275.42,99.76,280.73,98.56,284.94,104.55Z"/><path d="M347.42,162.86c-3.94,5.82-8.9,6.06-14.27,3.74-1.29-.56-2.83-2.23-2.89-3.45a4.68,4.68,0,0,1,2.53-3.67C337.9,158.07,343.21,156.87,347.42,162.86Z"/></svg>